<?xml version="1.0" encoding="UTF-8"?><svg xmlns="http://www.w3.org/2000/svg" xmlns:xlink="http://www.w3.org/1999/xlink" contentScriptType="text/ecmascript" width="375" zoomAndPan="magnify" contentStyleType="text/css" viewBox="0 0 375 37.5" height="37.5" preserveAspectRatio="xMidYMid meet" version="1.0"><defs><clipPath id="clip-0"><path d="M 62.773438 4 L 141.96875 4 L 141.96875 36.523438 L 62.773438 36.523438 Z M 62.773438 4 " clip-rule="nonzero"/></clipPath></defs><g clip-path="url(#clip-0)"><path fill="rgb(2.749634%, 1.568604%, 0%)" d="M 141.476562 15.320312 L 138.863281 10.113281 L 138.84375 10.078125 C 136.488281 5.992188 129.953125 4.199219 119.421875 4.746094 C 111.242188 5.175781 102.929688 6.902344 99.734375 7.628906 C 98.964844 7.800781 98.5 7.914062 98.410156 7.9375 C 98.316406 7.957031 97.851562 8.054688 97.082031 8.230469 C 93.886719 8.953125 85.640625 10.976562 78.085938 14.117188 C 68.359375 18.164062 63.257812 22.59375 62.929688 27.285156 L 62.925781 27.308594 L 62.851562 33.140625 C 62.847656 33.332031 62.855469 34.117188 63.421875 34.585938 C 63.664062 34.785156 64.085938 34.996094 64.71875 34.851562 C 64.820312 34.828125 64.921875 34.796875 65.027344 34.757812 C 65.3125 34.652344 65.648438 34.535156 65.988281 34.457031 C 67.019531 34.222656 67.6875 34.457031 68.21875 35.230469 C 68.445312 35.5625 68.976562 36.332031 69.796875 36.144531 C 70.164062 36.0625 70.40625 35.820312 70.621094 35.605469 C 70.832031 35.390625 71.015625 35.207031 71.300781 35.144531 C 71.457031 35.109375 71.640625 35.109375 71.851562 35.144531 C 73 35.339844 74.285156 35.160156 75.320312 35.011719 C 75.847656 34.9375 76.625 34.828125 76.910156 34.878906 C 77.289062 35.414062 77.863281 35.652344 78.46875 35.515625 C 78.925781 35.410156 79.359375 35.09375 79.621094 34.675781 C 79.652344 34.660156 79.710938 34.640625 79.808594 34.617188 C 80.207031 34.527344 80.851562 34.5 81.53125 34.46875 C 81.6875 34.460938 81.84375 34.453125 82 34.445312 C 82.296875 34.433594 82.539062 34.414062 82.753906 34.402344 C 82.988281 34.386719 83.226562 34.371094 83.375 34.371094 C 83.710938 34.84375 84.40625 35.113281 85.011719 34.976562 C 85.460938 34.875 85.804688 34.570312 85.960938 34.136719 C 86.003906 34.121094 86.078125 34.09375 86.207031 34.0625 C 86.496094 34 86.871094 33.964844 87.273438 33.925781 C 87.617188 33.894531 87.972656 33.863281 88.304688 33.804688 C 88.4375 33.78125 88.597656 33.75 88.792969 33.707031 C 89.011719 33.65625 89.25 33.597656 89.503906 33.535156 C 89.78125 33.46875 90.070312 33.398438 90.355469 33.332031 C 91.769531 33.011719 92.148438 33.085938 92.238281 33.117188 C 93.171875 33.699219 93.792969 33.894531 94.308594 33.777344 C 94.714844 33.6875 95.015625 33.402344 95.136719 32.996094 C 95.195312 32.804688 95.226562 32.6875 95.695312 32.582031 C 95.734375 32.574219 95.777344 32.5625 95.824219 32.554688 C 96.117188 32.5 96.789062 32.433594 97.496094 32.359375 C 98.546875 32.253906 99.851562 32.121094 100.777344 31.949219 C 101.351562 31.84375 101.609375 31.910156 101.96875 32.003906 C 102.414062 32.121094 102.964844 32.265625 103.964844 32.039062 C 104.964844 31.8125 105.398438 31.441406 105.75 31.148438 C 106.03125 30.910156 106.230469 30.738281 106.796875 30.585938 C 107.703125 30.339844 108.9375 29.898438 109.929688 29.542969 C 110.601562 29.300781 111.234375 29.074219 111.523438 28.996094 C 111.570312 28.984375 111.609375 28.972656 111.652344 28.964844 C 112.117188 28.859375 112.199219 28.949219 112.335938 29.097656 C 112.621094 29.410156 113.019531 29.535156 113.425781 29.445312 C 113.941406 29.328125 114.414062 28.882812 115 27.957031 C 115.0625 27.890625 115.375 27.660156 116.789062 27.339844 C 117.074219 27.273438 117.363281 27.214844 117.644531 27.15625 C 117.898438 27.101562 118.140625 27.054688 118.363281 27.003906 C 118.554688 26.960938 118.714844 26.921875 118.84375 26.882812 C 119.167969 26.789062 119.503906 26.667969 119.828125 26.546875 C 120.203125 26.40625 120.558594 26.277344 120.847656 26.210938 C 120.976562 26.183594 121.054688 26.175781 121.101562 26.171875 C 121.433594 26.496094 121.875 26.621094 122.324219 26.519531 C 122.929688 26.378906 123.4375 25.839844 123.535156 25.265625 C 123.664062 25.203125 123.886719 25.117188 124.101562 25.027344 C 124.304688 24.949219 124.53125 24.859375 124.804688 24.746094 C 124.949219 24.683594 125.09375 24.621094 125.234375 24.5625 C 125.863281 24.296875 126.457031 24.042969 126.851562 23.953125 C 126.949219 23.933594 127.011719 23.925781 127.046875 23.925781 C 127.464844 24.1875 127.992188 24.289062 128.453125 24.183594 C 129.058594 24.046875 129.46875 23.585938 129.574219 22.941406 C 129.8125 22.773438 130.558594 22.535156 131.070312 22.375 C 132.0625 22.0625 133.300781 21.671875 134.25 21 C 134.425781 20.878906 134.589844 20.796875 134.746094 20.761719 C 135.03125 20.699219 135.277344 20.785156 135.558594 20.882812 C 135.847656 20.984375 136.171875 21.101562 136.539062 21.015625 C 137.359375 20.832031 137.5 19.90625 137.558594 19.515625 C 137.699219 18.585938 138.199219 18.089844 139.230469 17.855469 C 139.570312 17.777344 139.925781 17.738281 140.230469 17.710938 C 140.339844 17.703125 140.445312 17.683594 140.542969 17.664062 C 141.179688 17.519531 141.46875 17.148438 141.597656 16.867188 C 141.902344 16.199219 141.566406 15.488281 141.476562 15.320312 " fill-opacity="1" fill-rule="nonzero"/></g><path fill="rgb(0%, 0%, 0%)" d="M 103.792969 31.300781 C 102.210938 31.660156 102.171875 30.921875 100.636719 31.207031 C 99.101562 31.488281 96.464844 31.664062 95.683594 31.808594 C 94.898438 31.957031 94.570312 32.226562 94.402344 32.78125 C 94.238281 33.335938 93.394531 32.945312 92.632812 32.46875 C 91.871094 31.996094 89.308594 32.867188 88.175781 33.058594 C 87.042969 33.25 85.453125 33.15625 85.261719 33.828125 C 85.066406 34.496094 84.164062 34.269531 83.96875 33.882812 C 83.769531 33.496094 83.425781 33.617188 81.964844 33.691406 C 80.5 33.761719 79.257812 33.761719 78.996094 34.234375 C 78.734375 34.703125 77.964844 35.144531 77.496094 34.378906 C 77.023438 33.609375 74.15625 34.769531 71.980469 34.398438 C 69.804688 34.027344 70.03125 36.523438 68.851562 34.804688 C 67.671875 33.085938 65.960938 33.601562 64.757812 34.046875 C 63.554688 34.496094 63.617188 33.164062 63.617188 33.164062 L 63.691406 27.339844 C 64.515625 15.621094 98.582031 8.675781 98.582031 8.675781 C 98.582031 8.675781 132.304688 0.253906 138.179688 10.453125 L 140.796875 15.667969 C 140.796875 15.667969 141.4375 16.839844 140.160156 16.957031 C 138.878906 17.074219 137.113281 17.34375 136.804688 19.402344 C 136.492188 21.457031 135.605469 19.113281 133.808594 20.382812 C 132.011719 21.652344 128.917969 21.847656 128.832031 22.742188 C 128.742188 23.636719 127.855469 23.566406 127.414062 23.257812 C 126.972656 22.949219 125.855469 23.480469 124.503906 24.046875 C 123.15625 24.609375 122.792969 24.648438 122.785156 25.082031 C 122.777344 25.519531 122.0625 26.109375 121.59375 25.589844 C 121.128906 25.070312 119.738281 25.839844 118.632812 26.15625 C 117.53125 26.46875 114.839844 26.789062 114.359375 27.546875 C 113.882812 28.300781 113.292969 29.015625 112.902344 28.585938 C 112.507812 28.15625 112.09375 28.058594 111.324219 28.265625 C 110.554688 28.472656 108.105469 29.449219 106.597656 29.855469 C 105.089844 30.261719 105.378906 30.941406 103.792969 31.300781 " fill-opacity="1" fill-rule="evenodd"/><path fill="rgb(100%, 100%, 100%)" d="M 132.304688 12.722656 C 132.304688 12.722656 133.210938 12.550781 133.785156 12.066406 C 134.359375 11.578125 136.789062 19.15625 136.082031 19.347656 C 135.378906 19.542969 134.765625 16.3125 134.125 15.03125 C 133.488281 13.753906 131.730469 12.890625 132.304688 12.722656 " fill-opacity="1" fill-rule="nonzero"/><path fill="rgb(100%, 100%, 100%)" d="M 127.972656 22.839844 C 127.972656 22.839844 128.328125 22.402344 127.972656 20.863281 C 127.621094 19.324219 127.042969 15.277344 126.480469 15.371094 C 125.914062 15.46875 124.476562 16.3125 124.070312 16.402344 C 123.667969 16.496094 125 16.746094 125.421875 16.875 C 125.84375 17.007812 126.023438 17.644531 126.699219 19.4375 C 127.371094 21.226562 127.476562 22.953125 127.972656 22.839844 " fill-opacity="1" fill-rule="nonzero"/><path fill="rgb(100%, 100%, 100%)" d="M 103.703125 30.898438 C 102.925781 31.074219 101.230469 26.40625 100.703125 25.394531 C 100.175781 24.378906 98.628906 23.628906 99.503906 23.730469 C 100.375 23.835938 101.996094 23.492188 101.996094 23.492188 C 101.996094 23.492188 103.605469 23.105469 104.34375 22.636719 C 105.085938 22.164062 104.023438 23.507812 103.992188 24.648438 C 103.960938 25.789062 104.480469 30.722656 103.703125 30.898438 " fill-opacity="1" fill-rule="nonzero"/><path fill="rgb(100%, 100%, 100%)" d="M 113.226562 28.078125 C 113.226562 28.078125 114.089844 28.074219 113.980469 25.832031 C 113.875 23.589844 113.453125 20.996094 113.953125 20.609375 C 114.453125 20.21875 114.277344 19.53125 113.585938 19.800781 C 112.898438 20.070312 111.683594 20.394531 111.242188 20.398438 C 110.800781 20.398438 111.390625 20.898438 111.902344 21.058594 C 112.410156 21.21875 112.761719 23.160156 112.8125 24.65625 C 112.863281 26.152344 112.90625 28.242188 113.226562 28.078125 " fill-opacity="1" fill-rule="nonzero"/><path fill="rgb(100%, 100%, 100%)" d="M 122.078125 25.246094 C 122.078125 25.246094 122.542969 24.929688 122.386719 23.683594 C 122.230469 22.441406 121.425781 18.316406 121.574219 18.105469 C 121.722656 17.890625 121.453125 17.515625 120.914062 17.71875 C 120.371094 17.921875 119.449219 18.035156 119.8125 18.46875 C 120.175781 18.90625 120.730469 18.84375 120.898438 19.777344 C 121.066406 20.714844 121.632812 25.378906 122.078125 25.246094 " fill-opacity="1" fill-rule="nonzero"/><path fill="rgb(100%, 100%, 100%)" d="M 70.039062 26.839844 C 70.039062 26.839844 69.144531 27.074219 68.417969 26.882812 C 67.6875 26.691406 68.816406 34.566406 69.535156 34.433594 C 70.257812 34.304688 69.394531 31.128906 69.410156 29.703125 C 69.421875 28.273438 70.628906 26.738281 70.039062 26.839844 " fill-opacity="1" fill-rule="nonzero"/><path fill="rgb(100%, 100%, 100%)" d="M 78.371094 34.082031 C 78.371094 34.082031 77.859375 33.84375 77.503906 32.304688 C 77.148438 30.765625 75.890625 26.871094 76.445312 26.714844 C 76.996094 26.558594 78.660156 26.699219 79.066406 26.605469 C 79.46875 26.515625 78.378906 27.3125 78.054688 27.613281 C 77.734375 27.910156 77.851562 28.566406 78.027344 30.46875 C 78.207031 32.371094 78.867188 33.96875 78.371094 34.082031 " fill-opacity="1" fill-rule="nonzero"/><path fill="rgb(100%, 100%, 100%)" d="M 93.949219 32.445312 C 93.949219 32.445312 93.167969 32.816406 92.285156 30.75 C 91.398438 28.683594 90.640625 26.167969 90.019531 26.03125 C 89.402344 25.898438 89.257812 25.203125 89.996094 25.148438 C 90.734375 25.09375 91.972656 24.863281 92.371094 24.675781 C 92.765625 24.488281 92.457031 25.191406 92.066406 25.554688 C 91.675781 25.917969 92.210938 27.820312 92.820312 29.1875 C 93.429688 30.554688 94.308594 32.457031 93.949219 32.445312 " fill-opacity="1" fill-rule="nonzero"/><path fill="rgb(100%, 100%, 100%)" d="M 84.734375 33.707031 C 84.734375 33.707031 84.175781 33.625 83.773438 32.4375 C 83.367188 31.25 82.285156 27.1875 82.058594 27.0625 C 81.835938 26.933594 81.910156 26.480469 82.484375 26.429688 C 83.0625 26.378906 83.941406 26.082031 83.804688 26.632812 C 83.671875 27.179688 83.144531 27.367188 83.402344 28.277344 C 83.660156 29.191406 85.191406 33.636719 84.734375 33.707031 " fill-opacity="1" fill-rule="nonzero"/><path fill="rgb(2.749634%, 1.568604%, 0%)" d="M 111.5 26.949219 C 111.5 26.949219 110.941406 23.667969 110.199219 22.710938 C 109.457031 21.757812 107.601562 21.550781 108.976562 22.988281 C 110.351562 24.425781 111.605469 28.4375 111.5 26.949219 " fill-opacity="1" fill-rule="nonzero"/><path fill="rgb(2.749634%, 1.568604%, 0%)" d="M 118.132812 19.613281 C 118.132812 19.613281 118.363281 18.847656 118.976562 18.886719 C 119.589844 18.925781 119.964844 19.699219 120.179688 20.914062 C 120.394531 22.128906 121.003906 24.5625 120.585938 24.511719 C 120.164062 24.464844 119.777344 23.160156 119.632812 22.300781 C 119.484375 21.445312 118.953125 20.203125 118.648438 20.289062 C 118.339844 20.375 117.953125 19.972656 118.132812 19.613281 " fill-opacity="1" fill-rule="nonzero"/><path fill="rgb(2.749634%, 1.568604%, 0%)" d="M 123.765625 17.0625 C 123.765625 17.0625 125.054688 16.992188 125.519531 18.148438 C 125.980469 19.308594 127.011719 22.507812 126.664062 22.617188 C 126.3125 22.730469 125.976562 21.398438 125.488281 20.132812 C 125 18.867188 124.15625 17.972656 123.847656 17.976562 C 123.539062 17.980469 123.0625 17.050781 123.765625 17.0625 " fill-opacity="1" fill-rule="nonzero"/><path fill="rgb(2.749634%, 1.568604%, 0%)" d="M 134.53125 19.269531 C 134.53125 19.269531 134.835938 18.984375 134.300781 17.226562 C 133.765625 15.46875 133.144531 14.292969 132.550781 13.886719 C 131.957031 13.484375 131.6875 13.261719 131.164062 13.445312 C 130.640625 13.628906 130.300781 13.859375 131.011719 14.019531 C 131.726562 14.183594 132.84375 14.878906 133.648438 16.769531 C 134.457031 18.660156 134.445312 19.710938 134.53125 19.269531 " fill-opacity="1" fill-rule="nonzero"/><path fill="rgb(2.749634%, 1.568604%, 0%)" d="M 136.390625 11.289062 C 136.390625 11.289062 137.148438 10.792969 137.921875 12.261719 C 138.695312 13.726562 139.824219 16.730469 139.34375 16.257812 C 138.863281 15.78125 137.839844 13.230469 137.257812 12.777344 C 136.675781 12.328125 135.707031 11.53125 136.390625 11.289062 " fill-opacity="1" fill-rule="nonzero"/><path fill="rgb(2.749634%, 1.568604%, 0%)" d="M 65.339844 27.394531 C 65.339844 27.394531 64.441406 27.277344 64.386719 28.929688 C 64.332031 30.582031 64.632812 33.773438 64.859375 33.140625 C 65.082031 32.507812 64.886719 29.765625 65.214844 29.109375 C 65.539062 28.453125 66.0625 27.320312 65.339844 27.394531 " fill-opacity="1" fill-rule="nonzero"/><path fill="rgb(2.749634%, 1.568604%, 0%)" d="M 105.234375 28.65625 C 105.234375 28.65625 104.300781 25.457031 104.550781 24.277344 C 104.800781 23.097656 106.378906 22.113281 105.769531 24 C 105.160156 25.886719 105.792969 30.039062 105.234375 28.65625 " fill-opacity="1" fill-rule="nonzero"/><path fill="rgb(2.749634%, 1.568604%, 0%)" d="M 94.210938 25.765625 C 94.210938 25.765625 93.667969 25.175781 93.132812 25.476562 C 92.597656 25.777344 92.597656 26.632812 92.9375 27.820312 C 93.277344 29.007812 93.792969 31.464844 94.148438 31.238281 C 94.503906 31.011719 94.28125 29.667969 94.039062 28.832031 C 93.792969 28 93.730469 26.652344 94.042969 26.597656 C 94.355469 26.542969 94.53125 26.015625 94.210938 25.765625 " fill-opacity="1" fill-rule="nonzero"/><path fill="rgb(2.749634%, 1.568604%, 0%)" d="M 85.40625 25.957031 C 85.40625 25.957031 84.214844 26.445312 84.304688 27.691406 C 84.394531 28.933594 84.867188 32.257812 85.230469 32.207031 C 85.59375 32.15625 85.316406 30.8125 85.203125 29.460938 C 85.085938 28.109375 85.453125 26.941406 85.734375 26.8125 C 86.015625 26.6875 86.035156 25.640625 85.40625 25.957031 " fill-opacity="1" fill-rule="nonzero"/><path fill="rgb(2.749634%, 1.568604%, 0%)" d="M 79.503906 33.339844 C 79.503906 33.339844 79.105469 33.214844 78.816406 31.402344 C 78.53125 29.585938 78.574219 28.261719 78.929688 27.640625 C 79.289062 27.019531 79.433594 26.703125 79.984375 26.644531 C 80.539062 26.582031 80.945312 26.644531 80.375 27.097656 C 79.800781 27.550781 79.101562 28.660156 79.203125 30.707031 C 79.304688 32.757812 79.773438 33.699219 79.503906 33.339844 " fill-opacity="1" fill-rule="nonzero"/><path fill="rgb(2.749634%, 1.568604%, 0%)" d="M 71.246094 27.898438 C 71.246094 27.898438 70.347656 27.777344 70.292969 29.429688 C 70.238281 31.082031 70.539062 34.273438 70.761719 33.640625 C 70.988281 33.007812 70.789062 30.269531 71.117188 29.609375 C 71.445312 28.953125 71.96875 27.820312 71.246094 27.898438 " fill-opacity="1" fill-rule="nonzero"/><path fill="rgb(80.778503%, 80.778503%, 80.778503%)" d="M 76.484375 25.042969 C 76.484375 25.042969 98.117188 24.136719 119.097656 16.171875 C 140.082031 8.207031 137.613281 7.859375 129.042969 7.019531 C 120.472656 6.175781 108.8125 6.875 102.519531 11.605469 C 96.230469 16.335938 107.808594 17.53125 114.183594 15.441406 C 120.558594 13.347656 111.28125 19.011719 98.304688 21.371094 C 85.328125 23.726562 71.902344 24.417969 76.484375 25.042969 " fill-opacity="1" fill-rule="nonzero"/></svg>