<?xml version="1.0" encoding="utf-8"?>
<!-- Generator: Adobe Illustrator 23.0.6, SVG Export Plug-In . SVG Version: 6.00 Build 0)  -->
<svg version="1.1" id="Layer_1" xmlns="http://www.w3.org/2000/svg" xmlns:xlink="http://www.w3.org/1999/xlink" x="0px" y="0px"
	 viewBox="0 0 500 500" enable-background="new 0 0 500 500" xml:space="preserve">
<g>
	<g>
		<linearGradient id="SVGID_1_" gradientUnits="userSpaceOnUse" x1="0" y1="404.0872" x2="498.009" y2="404.0872">
			<stop  offset="0" style="stop-color:#335170"/>
			<stop  offset="1" style="stop-color:#243448"/>
		</linearGradient>
		<ellipse fill="url(#SVGID_1_)" cx="157.3" cy="404.1" rx="51.9" ry="51.9"/>
		<linearGradient id="SVGID_2_" gradientUnits="userSpaceOnUse" x1="0" y1="404.1" x2="498.009" y2="404.1">
			<stop  offset="0" style="stop-color:#335170"/>
			<stop  offset="1" style="stop-color:#243448"/>
		</linearGradient>
		<ellipse fill="url(#SVGID_2_)" cx="366.9" cy="404.1" rx="51.9" ry="51.9"/>
		<g>
			<linearGradient id="SVGID_3_" gradientUnits="userSpaceOnUse" x1="0" y1="218.1801" x2="498.009" y2="218.1801">
				<stop  offset="0" style="stop-color:#335170"/>
				<stop  offset="1" style="stop-color:#243448"/>
			</linearGradient>
			<path fill="url(#SVGID_3_)" d="M391.4,90.9h-96.8c-11.3,0-20.7,9.9-22.5,22.9v205.3l-8.7,0.2c-0.5-3.3-1.6-6.4-3.1-9.1
				c-0.8-1.5-2.5-3-2.5-4.8c0-0.5,0-144.5,0-191.2c0-9,0-14.4,0-14.4l-0.3-3.4c0-0.3-0.1-0.7-0.2-1c-1.3-8.1-4.6-18.7-12.9-26.7
				c-8.4-8.1-20-11.6-34.5-10.6c-4.6-4.9-14.5-13.5-27.7-14.1c-10.3-0.5-20.1,3.7-29.3,12.6c-3.1-1.1-7.4-2.1-12.4-2.4
				c-8.8-0.5-21.2,1.5-32.4,13.2c-5.2,0-14.1,1.1-21.5,7.4c-5.8,4.9-9.2,11.8-10.7,20.6l-0.5,3.4c-0.1,0.6-0.1,1.2-0.2,1.8l-0.2,3.2
				v1.2v31.3H42.5c-7.5,0-15.2,0.7-21,6.1c-6.5,6.1-6.5,14.8-6.5,19v57.8c0,12.5,6.2,21.6,11.4,25.6l0.6,0.4l48,29.1
				c0.9,0.6,0.6,28-0.2,30.6c-0.7,2.2-2.5,4.3-3.4,6.4c-1.1,2.4-2,4.9-2.5,7.5c-0.4,1.9-0.5,3.8-0.5,5.7h-0.2v40.3
				c0,15.1,10,27.3,22.5,27.6c5.4-32.1,33.5-56.6,67.1-56.6s61.6,24.5,67.1,56.6h74.9c5.5-32.1,33.5-56.6,67.1-56.6
				s61.7,24.5,67.1,56.6h28.2c12.7,0,22.9-12.3,22.9-27.6V211.2C485.1,192.8,416.6,90.9,391.4,90.9z M75.3,240.2l-32.8-16.1
				c-0.5-0.7-1.3-2.2-1.3-4.9v-56.8c0.4,0,0.9,0,1.4,0h32.8v77.8H75.3z M90.8,95.4c1.1-4,3-7.1,5.5-9.3c5.7-4.9,13.8-3.8,13.9-3.8
				l4.2,0.7l2.7-3.3c6.3-7.6,13.9-11.2,22.7-10.7c1.8,0.1,3.5,0.4,5,0.7v0.1h-0.1c0.1,0,1.1,0.2,2.5,0.6c2.5,0.8,4,1.5,4,1.6
				l4.5,2.5c2.7,1.8,5.5,4.4,7.9,7.9c1.4,2.2,3.8,3.3,6.2,3.3c1.4,0,2.8-0.4,4.1-1.2c3.4-2.3,4.4-6.9,2.1-10.3
				c-2.7-4.1-5.9-7.4-9.1-9.9c4.9-3.7,9.8-5.5,14.6-5.3c11.1,0.5,19.4,11.4,19.5,11.5l2.6,3.5l4.3-0.6c11.7-1.5,20.6,0.6,26.4,6.1
				c4.6,4.5,6.8,10.7,7.8,16c0.3,1.4,0.5,2.8,0.6,4.1l-32.1,0.1v75.4c0,0.5-0.1,3.3-1.9,5.2c-1.5,1.5-4.1,2.3-7.7,2.3
				c-3.3,0-5.7-0.8-7.1-2.2c-2-2.1-2-5.4-2-5.4v-42.5c0-7.1-1.3-13.1-3.8-18.1c-1.4-2.7-3.1-5.2-5.3-7.3c-7.5-7.3-16.6-7.7-18.4-7.7
				h-0.1H89.9C90.2,97.8,90.4,96.5,90.8,95.4z M89.3,283V114h76.2c1.3,0.2,3.3,0.7,5.3,2.1c4.1,2.8,6.2,8.2,6.2,16v1.5h-68.7v140.6
				c0,14.7,16.4,26.6,30.1,26.6h56.9c13.6,0,30.1-11.9,30.1-26.6v-160h18.3v173.1c-2.2,16.4-16.2,29-33.1,29h-88.1
				c-16.9,0-30.9-12.7-33.1-29V283H89.3z M335.9,219.3V134c0,0,39.6,0,47.5,0s15.9,12.2,15.9,12.2s33.8,46.8,41.1,56.2
				c7.2,9.3,7.2,16.9,7.2,16.9L335.9,219.3L335.9,219.3z"/>
			<path fill="#5F5F5F" d="M91.1,392.5c-0.1,0-0.3,0-0.4,0l0,0H91.1z"/>
		</g>
	</g>
</g>
</svg>
